<?xml version="1.0" encoding="UTF-8" standalone="no"?>
<!DOCTYPE svg PUBLIC "-//W3C//DTD SVG 1.1//EN"
 "http://www.w3.org/Graphics/SVG/1.1/DTD/svg11.dtd">
<!-- Generated by graphviz version 2.40.1 (20161225.0304)
 -->
<!-- Title: dependencies Pages: 1 -->
<svg width="504pt" height="211pt"
 viewBox="0.00 0.00 504.00 211.00" xmlns="http://www.w3.org/2000/svg" xmlns:xlink="http://www.w3.org/1999/xlink">
<g id="graph0" class="graph" transform="scale(1 1) rotate(0) translate(4 207)">
<title>dependencies</title>
<polygon fill="#ffffff" stroke="transparent" points="-4,4 -4,-207 500,-207 500,4 -4,4"/>
<text text-anchor="start" x="227.0091" y="-42.4" font-family="sans-serif" font-weight="bold" font-size="14.00" fill="#000000">Legend</text>
<polygon fill="#ffffb3" stroke="transparent" points="14,-10 14,-30 34,-30 34,-10 14,-10"/>
<text text-anchor="start" x="37.629" y="-15.4" font-family="sans-serif" font-size="14.00" fill="#000000"> &#160;Declarations</text>
<polygon fill="#8dd3c7" stroke="transparent" points="127,-10 127,-30 147,-30 147,-10 127,-10"/>
<text text-anchor="start" x="150.7251" y="-15.4" font-family="sans-serif" font-size="14.00" fill="#000000"> &#160;Module</text>
<polygon fill="#80b1d3" stroke="transparent" points="213,-10 213,-30 233,-30 233,-10 213,-10"/>
<text text-anchor="start" x="236.7812" y="-15.4" font-family="sans-serif" font-size="14.00" fill="#000000"> &#160;Bootstrap</text>
<polygon fill="#fdb462" stroke="transparent" points="310,-10 310,-30 330,-30 330,-10 310,-10"/>
<text text-anchor="start" x="333.6732" y="-15.4" font-family="sans-serif" font-size="14.00" fill="#000000"> &#160;Providers</text>
<polygon fill="#fb8072" stroke="transparent" points="406,-10 406,-30 426,-30 426,-10 406,-10"/>
<text text-anchor="start" x="429.7258" y="-15.4" font-family="sans-serif" font-size="14.00" fill="#000000"> &#160;Exports</text>
<g id="clust1" class="cluster">
<title>cluster_ProfileModule</title>
<polygon fill="none" stroke="#000000" stroke-dasharray="1,5" points="111,-70 111,-195 385,-195 385,-70 111,-70"/>
</g>
<g id="clust3" class="cluster">
<title>cluster_ProfileModule_imports</title>
<polygon fill="none" stroke="#000000" points="275,-78 275,-130 377,-130 377,-78 275,-78"/>
</g>
<g id="clust6" class="cluster">
<title>cluster_ProfileModule_providers</title>
<polygon fill="none" stroke="#000000" points="119,-78 119,-130 267,-130 267,-78 119,-78"/>
</g>
<!-- UserModule -->
<g id="node1" class="node">
<title>UserModule</title>
<polygon fill="#8dd3c7" stroke="#000000" points="368.9762,-122 365.9762,-126 344.9762,-126 341.9762,-122 283.0238,-122 283.0238,-86 368.9762,-86 368.9762,-122"/>
<text text-anchor="middle" x="326" y="-99.8" font-family="Times,serif" font-size="14.00" fill="#000000">UserModule</text>
</g>
<!-- ProfileModule -->
<g id="node2" class="node">
<title>ProfileModule</title>
<polygon fill="#8dd3c7" stroke="#000000" points="307.65,-187 304.65,-191 283.65,-191 280.65,-187 210.35,-187 210.35,-151 307.65,-151 307.65,-187"/>
<text text-anchor="middle" x="259" y="-164.8" font-family="Times,serif" font-size="14.00" fill="#000000">ProfileModule</text>
</g>
<!-- UserModule&#45;&gt;ProfileModule -->
<g id="edge1" class="edge">
<title>UserModule&#45;&gt;ProfileModule</title>
<path fill="none" stroke="#000000" d="M295.4183,-122.1061C295.4183,-122.1061 295.4183,-140.991 295.4183,-140.991"/>
<polygon fill="#000000" stroke="#000000" points="291.9184,-140.9909 295.4183,-150.991 298.9184,-140.991 291.9184,-140.9909"/>
</g>
<!-- ProfileService -->
<g id="node3" class="node">
<title>ProfileService</title>
<ellipse fill="#fdb462" stroke="#000000" cx="193" cy="-104" rx="66.0454" ry="18"/>
<text text-anchor="middle" x="193" y="-99.8" font-family="Times,serif" font-size="14.00" fill="#000000">ProfileService</text>
</g>
<!-- ProfileService&#45;&gt;ProfileModule -->
<g id="edge2" class="edge">
<title>ProfileService&#45;&gt;ProfileModule</title>
<path fill="none" stroke="#000000" d="M234.7238,-118.104C234.7238,-118.104 234.7238,-140.7209 234.7238,-140.7209"/>
<polygon fill="#000000" stroke="#000000" points="231.2239,-140.7209 234.7238,-150.7209 238.2239,-140.7209 231.2239,-140.7209"/>
</g>
</g>
</svg>
