<?xml version="1.0" encoding="UTF-8" standalone="no"?>
<!DOCTYPE svg PUBLIC "-//W3C//DTD SVG 1.1//EN"
 "http://www.w3.org/Graphics/SVG/1.1/DTD/svg11.dtd">
<!-- Generated by graphviz version 2.40.1 (20161225.0304)
 -->
<!-- Title: dependencies Pages: 1 -->
<svg width="504pt" height="211pt"
 viewBox="0.00 0.00 504.00 211.00" xmlns="http://www.w3.org/2000/svg" xmlns:xlink="http://www.w3.org/1999/xlink">
<g id="graph0" class="graph" transform="scale(1 1) rotate(0) translate(4 207)">
<title>dependencies</title>
<polygon fill="#ffffff" stroke="transparent" points="-4,4 -4,-207 500,-207 500,4 -4,4"/>
<text text-anchor="start" x="227.0091" y="-42.4" font-family="sans-serif" font-weight="bold" font-size="14.00" fill="#000000">Legend</text>
<polygon fill="#ffffb3" stroke="transparent" points="14,-10 14,-30 34,-30 34,-10 14,-10"/>
<text text-anchor="start" x="37.629" y="-15.4" font-family="sans-serif" font-size="14.00" fill="#000000"> &#160;Declarations</text>
<polygon fill="#8dd3c7" stroke="transparent" points="127,-10 127,-30 147,-30 147,-10 127,-10"/>
<text text-anchor="start" x="150.7251" y="-15.4" font-family="sans-serif" font-size="14.00" fill="#000000"> &#160;Module</text>
<polygon fill="#80b1d3" stroke="transparent" points="213,-10 213,-30 233,-30 233,-10 213,-10"/>
<text text-anchor="start" x="236.7812" y="-15.4" font-family="sans-serif" font-size="14.00" fill="#000000"> &#160;Bootstrap</text>
<polygon fill="#fdb462" stroke="transparent" points="310,-10 310,-30 330,-30 330,-10 310,-10"/>
<text text-anchor="start" x="333.6732" y="-15.4" font-family="sans-serif" font-size="14.00" fill="#000000"> &#160;Providers</text>
<polygon fill="#fb8072" stroke="transparent" points="406,-10 406,-30 426,-30 426,-10 406,-10"/>
<text text-anchor="start" x="429.7258" y="-15.4" font-family="sans-serif" font-size="14.00" fill="#000000"> &#160;Exports</text>
<g id="clust1" class="cluster">
<title>cluster_TagModule</title>
<polygon fill="none" stroke="#000000" stroke-dasharray="1,5" points="122,-70 122,-195 374,-195 374,-70 122,-70"/>
</g>
<g id="clust3" class="cluster">
<title>cluster_TagModule_imports</title>
<polygon fill="none" stroke="#000000" points="264,-78 264,-130 366,-130 366,-78 264,-78"/>
</g>
<g id="clust6" class="cluster">
<title>cluster_TagModule_providers</title>
<polygon fill="none" stroke="#000000" points="130,-78 130,-130 256,-130 256,-78 130,-78"/>
</g>
<!-- UserModule -->
<g id="node1" class="node">
<title>UserModule</title>
<polygon fill="#8dd3c7" stroke="#000000" points="357.9762,-122 354.9762,-126 333.9762,-126 330.9762,-122 272.0238,-122 272.0238,-86 357.9762,-86 357.9762,-122"/>
<text text-anchor="middle" x="315" y="-99.8" font-family="Times,serif" font-size="14.00" fill="#000000">UserModule</text>
</g>
<!-- TagModule -->
<g id="node2" class="node">
<title>TagModule</title>
<polygon fill="#8dd3c7" stroke="#000000" points="294.8176,-187 291.8176,-191 270.8176,-191 267.8176,-187 213.1824,-187 213.1824,-151 294.8176,-151 294.8176,-187"/>
<text text-anchor="middle" x="254" y="-164.8" font-family="Times,serif" font-size="14.00" fill="#000000">TagModule</text>
</g>
<!-- UserModule&#45;&gt;TagModule -->
<g id="edge1" class="edge">
<title>UserModule&#45;&gt;TagModule</title>
<path fill="none" stroke="#000000" d="M283.3352,-122.1061C283.3352,-122.1061 283.3352,-140.991 283.3352,-140.991"/>
<polygon fill="#000000" stroke="#000000" points="279.8353,-140.9909 283.3352,-150.991 286.8353,-140.991 279.8353,-140.9909"/>
</g>
<!-- TagService -->
<g id="node3" class="node">
<title>TagService</title>
<ellipse fill="#fdb462" stroke="#000000" cx="193" cy="-104" rx="55.013" ry="18"/>
<text text-anchor="middle" x="193" y="-99.8" font-family="Times,serif" font-size="14.00" fill="#000000">TagService</text>
</g>
<!-- TagService&#45;&gt;TagModule -->
<g id="edge2" class="edge">
<title>TagService&#45;&gt;TagModule</title>
<path fill="none" stroke="#000000" d="M230.674,-117.1537C230.674,-117.1537 230.674,-140.6938 230.674,-140.6938"/>
<polygon fill="#000000" stroke="#000000" points="227.1741,-140.6938 230.674,-150.6938 234.1741,-140.6939 227.1741,-140.6938"/>
</g>
</g>
</svg>
