<?xml version="1.0" encoding="UTF-8" standalone="no"?>
<!DOCTYPE svg PUBLIC "-//W3C//DTD SVG 1.1//EN"
 "http://www.w3.org/Graphics/SVG/1.1/DTD/svg11.dtd">
<!-- Generated by graphviz version 2.40.1 (20161225.0304)
 -->
<!-- Title: dependencies Pages: 1 -->
<svg width="504pt" height="211pt"
 viewBox="0.00 0.00 504.00 211.00" xmlns="http://www.w3.org/2000/svg" xmlns:xlink="http://www.w3.org/1999/xlink">
<g id="graph0" class="graph" transform="scale(1 1) rotate(0) translate(4 207)">
<title>dependencies</title>
<polygon fill="#ffffff" stroke="transparent" points="-4,4 -4,-207 500,-207 500,4 -4,4"/>
<text text-anchor="start" x="227.0091" y="-42.4" font-family="sans-serif" font-weight="bold" font-size="14.00" fill="#000000">Legend</text>
<polygon fill="#ffffb3" stroke="transparent" points="14,-10 14,-30 34,-30 34,-10 14,-10"/>
<text text-anchor="start" x="37.629" y="-15.4" font-family="sans-serif" font-size="14.00" fill="#000000"> &#160;Declarations</text>
<polygon fill="#8dd3c7" stroke="transparent" points="127,-10 127,-30 147,-30 147,-10 127,-10"/>
<text text-anchor="start" x="150.7251" y="-15.4" font-family="sans-serif" font-size="14.00" fill="#000000"> &#160;Module</text>
<polygon fill="#80b1d3" stroke="transparent" points="213,-10 213,-30 233,-30 233,-10 213,-10"/>
<text text-anchor="start" x="236.7812" y="-15.4" font-family="sans-serif" font-size="14.00" fill="#000000"> &#160;Bootstrap</text>
<polygon fill="#fdb462" stroke="transparent" points="310,-10 310,-30 330,-30 330,-10 310,-10"/>
<text text-anchor="start" x="333.6732" y="-15.4" font-family="sans-serif" font-size="14.00" fill="#000000"> &#160;Providers</text>
<polygon fill="#fb8072" stroke="transparent" points="406,-10 406,-30 426,-30 426,-10 406,-10"/>
<text text-anchor="start" x="429.7258" y="-15.4" font-family="sans-serif" font-size="14.00" fill="#000000"> &#160;Exports</text>
<g id="clust1" class="cluster">
<title>cluster_ArticleModule</title>
<polygon fill="none" stroke="#000000" stroke-dasharray="1,5" points="110,-70 110,-195 386,-195 386,-70 110,-70"/>
</g>
<g id="clust3" class="cluster">
<title>cluster_ArticleModule_imports</title>
<polygon fill="none" stroke="#000000" points="276,-78 276,-130 378,-130 378,-78 276,-78"/>
</g>
<g id="clust6" class="cluster">
<title>cluster_ArticleModule_providers</title>
<polygon fill="none" stroke="#000000" points="118,-78 118,-130 268,-130 268,-78 118,-78"/>
</g>
<!-- UserModule -->
<g id="node1" class="node">
<title>UserModule</title>
<polygon fill="#8dd3c7" stroke="#000000" points="369.9762,-122 366.9762,-126 345.9762,-126 342.9762,-122 284.0238,-122 284.0238,-86 369.9762,-86 369.9762,-122"/>
<text text-anchor="middle" x="327" y="-99.8" font-family="Times,serif" font-size="14.00" fill="#000000">UserModule</text>
</g>
<!-- ArticleModule -->
<g id="node2" class="node">
<title>ArticleModule</title>
<polygon fill="#8dd3c7" stroke="#000000" points="309.4189,-187 306.4189,-191 285.4189,-191 282.4189,-187 210.5811,-187 210.5811,-151 309.4189,-151 309.4189,-187"/>
<text text-anchor="middle" x="260" y="-164.8" font-family="Times,serif" font-size="14.00" fill="#000000">ArticleModule</text>
</g>
<!-- UserModule&#45;&gt;ArticleModule -->
<g id="edge1" class="edge">
<title>UserModule&#45;&gt;ArticleModule</title>
<path fill="none" stroke="#000000" d="M296.6105,-122.1061C296.6105,-122.1061 296.6105,-140.991 296.6105,-140.991"/>
<polygon fill="#000000" stroke="#000000" points="293.1105,-140.9909 296.6105,-150.991 300.1105,-140.991 293.1105,-140.9909"/>
</g>
<!-- ArticleService -->
<g id="node3" class="node">
<title>ArticleService</title>
<ellipse fill="#fdb462" stroke="#000000" cx="193" cy="-104" rx="66.6055" ry="18"/>
<text text-anchor="middle" x="193" y="-99.8" font-family="Times,serif" font-size="14.00" fill="#000000">ArticleService</text>
</g>
<!-- ArticleService&#45;&gt;ArticleModule -->
<g id="edge2" class="edge">
<title>ArticleService&#45;&gt;ArticleModule</title>
<path fill="none" stroke="#000000" d="M235.2967,-118.104C235.2967,-118.104 235.2967,-140.7209 235.2967,-140.7209"/>
<polygon fill="#000000" stroke="#000000" points="231.7968,-140.7209 235.2967,-150.7209 238.7968,-140.7209 231.7968,-140.7209"/>
</g>
</g>
</svg>
