<?xml version="1.0" encoding="UTF-8" standalone="no"?>
<!DOCTYPE svg PUBLIC "-//W3C//DTD SVG 1.1//EN"
 "http://www.w3.org/Graphics/SVG/1.1/DTD/svg11.dtd">
<!-- Generated by graphviz version 2.40.1 (20161225.0304)
 -->
<!-- Title: dependencies Pages: 1 -->
<svg width="1270pt" height="211pt"
 viewBox="0.00 0.00 1270.00 211.00" xmlns="http://www.w3.org/2000/svg" xmlns:xlink="http://www.w3.org/1999/xlink">
<g id="graph0" class="graph" transform="scale(1 1) rotate(0) translate(4 207)">
<title>dependencies</title>
<polygon fill="#ffffff" stroke="transparent" points="-4,4 -4,-207 1266,-207 1266,4 -4,4"/>
<text text-anchor="start" x="610.0091" y="-42.4" font-family="sans-serif" font-weight="bold" font-size="14.00" fill="#000000">Legend</text>
<polygon fill="#ffffb3" stroke="transparent" points="397,-10 397,-30 417,-30 417,-10 397,-10"/>
<text text-anchor="start" x="420.629" y="-15.4" font-family="sans-serif" font-size="14.00" fill="#000000"> &#160;Declarations</text>
<polygon fill="#8dd3c7" stroke="transparent" points="510,-10 510,-30 530,-30 530,-10 510,-10"/>
<text text-anchor="start" x="533.7251" y="-15.4" font-family="sans-serif" font-size="14.00" fill="#000000"> &#160;Module</text>
<polygon fill="#80b1d3" stroke="transparent" points="596,-10 596,-30 616,-30 616,-10 596,-10"/>
<text text-anchor="start" x="619.7812" y="-15.4" font-family="sans-serif" font-size="14.00" fill="#000000"> &#160;Bootstrap</text>
<polygon fill="#fdb462" stroke="transparent" points="693,-10 693,-30 713,-30 713,-10 693,-10"/>
<text text-anchor="start" x="716.6732" y="-15.4" font-family="sans-serif" font-size="14.00" fill="#000000"> &#160;Providers</text>
<polygon fill="#fb8072" stroke="transparent" points="789,-10 789,-30 809,-30 809,-10 789,-10"/>
<text text-anchor="start" x="812.7258" y="-15.4" font-family="sans-serif" font-size="14.00" fill="#000000"> &#160;Exports</text>
<g id="clust1" class="cluster">
<title>cluster_AppModule</title>
<polygon fill="none" stroke="#000000" stroke-dasharray="1,5" points="8,-70 8,-195 1254,-195 1254,-70 8,-70"/>
</g>
<g id="clust3" class="cluster">
<title>cluster_AppModule_imports</title>
<polygon fill="none" stroke="#000000" points="16,-78 16,-130 1246,-130 1246,-78 16,-78"/>
</g>
<!-- ArticleModule -->
<g id="node1" class="node">
<title>ArticleModule</title>
<polygon fill="#8dd3c7" stroke="#000000" points="1238.4189,-122 1235.4189,-126 1214.4189,-126 1211.4189,-122 1139.5811,-122 1139.5811,-86 1238.4189,-86 1238.4189,-122"/>
<text text-anchor="middle" x="1189" y="-99.8" font-family="Times,serif" font-size="14.00" fill="#000000">ArticleModule</text>
</g>
<!-- AppModule -->
<g id="node12" class="node">
<title>AppModule</title>
<polygon fill="#8dd3c7" stroke="#000000" points="634.6571,-187 631.6571,-191 610.6571,-191 607.6571,-187 551.3429,-187 551.3429,-151 634.6571,-151 634.6571,-187"/>
<text text-anchor="middle" x="593" y="-164.8" font-family="Times,serif" font-size="14.00" fill="#000000">AppModule</text>
</g>
<!-- ArticleModule&#45;&gt;AppModule -->
<g id="edge1" class="edge">
<title>ArticleModule&#45;&gt;AppModule</title>
<path fill="none" stroke="#000000" d="M1189,-122.0908C1189,-145.1328 1189,-182 1189,-182 1189,-182 644.9096,-182 644.9096,-182"/>
<polygon fill="#000000" stroke="#000000" points="644.9096,-178.5001 634.9096,-182 644.9095,-185.5001 644.9096,-178.5001"/>
</g>
<!-- CorporationModule -->
<g id="node2" class="node">
<title>CorporationModule</title>
<polygon fill="#8dd3c7" stroke="#000000" points="1121.7036,-122 1118.7036,-126 1097.7036,-126 1094.7036,-122 994.2964,-122 994.2964,-86 1121.7036,-86 1121.7036,-122"/>
<text text-anchor="middle" x="1058" y="-99.8" font-family="Times,serif" font-size="14.00" fill="#000000">CorporationModule</text>
</g>
<!-- CorporationModule&#45;&gt;AppModule -->
<g id="edge2" class="edge">
<title>CorporationModule&#45;&gt;AppModule</title>
<path fill="none" stroke="#000000" d="M1058,-122.2843C1058,-143.3211 1058,-175 1058,-175 1058,-175 644.6749,-175 644.6749,-175"/>
<polygon fill="#000000" stroke="#000000" points="644.6749,-171.5001 634.6749,-175 644.6748,-178.5001 644.6749,-171.5001"/>
</g>
<!-- ErrorlogModule -->
<g id="node3" class="node">
<title>ErrorlogModule</title>
<polygon fill="#8dd3c7" stroke="#000000" points="976.4748,-122 973.4748,-126 952.4748,-126 949.4748,-122 869.5252,-122 869.5252,-86 976.4748,-86 976.4748,-122"/>
<text text-anchor="middle" x="923" y="-99.8" font-family="Times,serif" font-size="14.00" fill="#000000">ErrorlogModule</text>
</g>
<!-- ErrorlogModule&#45;&gt;AppModule -->
<g id="edge3" class="edge">
<title>ErrorlogModule&#45;&gt;AppModule</title>
<path fill="none" stroke="#000000" d="M923,-122.1061C923,-141.3391 923,-169 923,-169 923,-169 644.7947,-169 644.7947,-169"/>
<polygon fill="#000000" stroke="#000000" points="644.7948,-165.5001 634.7947,-169 644.7947,-172.5001 644.7948,-165.5001"/>
</g>
<!-- GroupModule -->
<g id="node4" class="node">
<title>GroupModule</title>
<polygon fill="#8dd3c7" stroke="#000000" points="851.8175,-122 848.8175,-126 827.8175,-126 824.8175,-122 756.1825,-122 756.1825,-86 851.8175,-86 851.8175,-122"/>
<text text-anchor="middle" x="804" y="-99.8" font-family="Times,serif" font-size="14.00" fill="#000000">GroupModule</text>
</g>
<!-- GroupModule&#45;&gt;AppModule -->
<g id="edge4" class="edge">
<title>GroupModule&#45;&gt;AppModule</title>
<path fill="none" stroke="#000000" d="M804,-122.0225C804,-139.3734 804,-163 804,-163 804,-163 644.6868,-163 644.6868,-163"/>
<polygon fill="#000000" stroke="#000000" points="644.6868,-159.5001 634.6868,-163 644.6868,-166.5001 644.6868,-159.5001"/>
</g>
<!-- ListModule -->
<g id="node5" class="node">
<title>ListModule</title>
<polygon fill="#8dd3c7" stroke="#000000" points="738.8289,-122 735.8289,-126 714.8289,-126 711.8289,-122 657.1711,-122 657.1711,-86 738.8289,-86 738.8289,-122"/>
<text text-anchor="middle" x="698" y="-99.8" font-family="Times,serif" font-size="14.00" fill="#000000">ListModule</text>
</g>
<!-- ListModule&#45;&gt;AppModule -->
<g id="edge5" class="edge">
<title>ListModule&#45;&gt;AppModule</title>
<path fill="none" stroke="#000000" d="M698,-122.2396C698,-137.5706 698,-157 698,-157 698,-157 644.8005,-157 644.8005,-157"/>
<polygon fill="#000000" stroke="#000000" points="644.8005,-153.5001 634.8005,-157 644.8004,-160.5001 644.8005,-153.5001"/>
</g>
<!-- MenuModule -->
<g id="node6" class="node">
<title>MenuModule</title>
<polygon fill="#8dd3c7" stroke="#000000" points="639.2092,-122 636.2092,-126 615.2092,-126 612.2092,-122 546.7908,-122 546.7908,-86 639.2092,-86 639.2092,-122"/>
<text text-anchor="middle" x="593" y="-99.8" font-family="Times,serif" font-size="14.00" fill="#000000">MenuModule</text>
</g>
<!-- MenuModule&#45;&gt;AppModule -->
<g id="edge6" class="edge">
<title>MenuModule&#45;&gt;AppModule</title>
<path fill="none" stroke="#000000" d="M593,-122.1061C593,-122.1061 593,-140.991 593,-140.991"/>
<polygon fill="#000000" stroke="#000000" points="589.5001,-140.9909 593,-150.991 596.5001,-140.991 589.5001,-140.9909"/>
</g>
<!-- ProfileModule -->
<g id="node7" class="node">
<title>ProfileModule</title>
<polygon fill="#8dd3c7" stroke="#000000" points="528.65,-122 525.65,-126 504.65,-126 501.65,-122 431.35,-122 431.35,-86 528.65,-86 528.65,-122"/>
<text text-anchor="middle" x="480" y="-99.8" font-family="Times,serif" font-size="14.00" fill="#000000">ProfileModule</text>
</g>
<!-- ProfileModule&#45;&gt;AppModule -->
<g id="edge7" class="edge">
<title>ProfileModule&#45;&gt;AppModule</title>
<path fill="none" stroke="#000000" d="M480,-122.2396C480,-137.5706 480,-157 480,-157 480,-157 541.244,-157 541.244,-157"/>
<polygon fill="#000000" stroke="#000000" points="541.2441,-160.5001 551.244,-157 541.244,-153.5001 541.2441,-160.5001"/>
</g>
<!-- RoleModule -->
<g id="node8" class="node">
<title>RoleModule</title>
<polygon fill="#8dd3c7" stroke="#000000" points="412.9916,-122 409.9916,-126 388.9916,-126 385.9916,-122 327.0084,-122 327.0084,-86 412.9916,-86 412.9916,-122"/>
<text text-anchor="middle" x="370" y="-99.8" font-family="Times,serif" font-size="14.00" fill="#000000">RoleModule</text>
</g>
<!-- RoleModule&#45;&gt;AppModule -->
<g id="edge8" class="edge">
<title>RoleModule&#45;&gt;AppModule</title>
<path fill="none" stroke="#000000" d="M370,-122.0225C370,-139.3734 370,-163 370,-163 370,-163 541.317,-163 541.317,-163"/>
<polygon fill="#000000" stroke="#000000" points="541.317,-166.5001 551.317,-163 541.317,-159.5001 541.317,-166.5001"/>
</g>
<!-- SiteModule -->
<g id="node9" class="node">
<title>SiteModule</title>
<polygon fill="#8dd3c7" stroke="#000000" points="308.8289,-122 305.8289,-126 284.8289,-126 281.8289,-122 227.1711,-122 227.1711,-86 308.8289,-86 308.8289,-122"/>
<text text-anchor="middle" x="268" y="-99.8" font-family="Times,serif" font-size="14.00" fill="#000000">SiteModule</text>
</g>
<!-- SiteModule&#45;&gt;AppModule -->
<g id="edge9" class="edge">
<title>SiteModule&#45;&gt;AppModule</title>
<path fill="none" stroke="#000000" d="M268,-122.1061C268,-141.3391 268,-169 268,-169 268,-169 541.1773,-169 541.1773,-169"/>
<polygon fill="#000000" stroke="#000000" points="541.1773,-172.5001 551.1773,-169 541.1772,-165.5001 541.1773,-172.5001"/>
</g>
<!-- TagModule -->
<g id="node10" class="node">
<title>TagModule</title>
<polygon fill="#8dd3c7" stroke="#000000" points="209.8176,-122 206.8176,-126 185.8176,-126 182.8176,-122 128.1824,-122 128.1824,-86 209.8176,-86 209.8176,-122"/>
<text text-anchor="middle" x="169" y="-99.8" font-family="Times,serif" font-size="14.00" fill="#000000">TagModule</text>
</g>
<!-- TagModule&#45;&gt;AppModule -->
<g id="edge10" class="edge">
<title>TagModule&#45;&gt;AppModule</title>
<path fill="none" stroke="#000000" d="M169,-122.2843C169,-143.3211 169,-175 169,-175 169,-175 541.1849,-175 541.1849,-175"/>
<polygon fill="#000000" stroke="#000000" points="541.1849,-178.5001 551.1849,-175 541.1848,-171.5001 541.1849,-178.5001"/>
</g>
<!-- UserModule -->
<g id="node11" class="node">
<title>UserModule</title>
<polygon fill="#8dd3c7" stroke="#000000" points="109.9762,-122 106.9762,-126 85.9762,-126 82.9762,-122 24.0238,-122 24.0238,-86 109.9762,-86 109.9762,-122"/>
<text text-anchor="middle" x="67" y="-99.8" font-family="Times,serif" font-size="14.00" fill="#000000">UserModule</text>
</g>
<!-- UserModule&#45;&gt;AppModule -->
<g id="edge11" class="edge">
<title>UserModule&#45;&gt;AppModule</title>
<path fill="none" stroke="#000000" d="M67,-122.0908C67,-145.1328 67,-182 67,-182 67,-182 541.286,-182 541.286,-182"/>
<polygon fill="#000000" stroke="#000000" points="541.286,-185.5001 551.286,-182 541.286,-178.5001 541.286,-185.5001"/>
</g>
</g>
</svg>
